<?xml version="1.0" standalone="no"?>
<!DOCTYPE svg PUBLIC "-//W3C//DTD SVG 20010904//EN"
 "http://www.w3.org/TR/2001/REC-SVG-20010904/DTD/svg10.dtd">
<svg version="1.0" xmlns="http://www.w3.org/2000/svg"
 width="180.000000pt" height="180.000000pt" viewBox="0 0 180.000000 180.000000"
 preserveAspectRatio="xMidYMid meet">
<metadata>
Created by potrace 1.11, written by Peter Selinger 2001-2013
</metadata>
<g transform="translate(0.000000,180.000000) scale(0.100000,-0.100000)"
fill="#000000" stroke="none">
<path d="M908 1765 c-2 -2 -30 -5 -62 -7 -32 -2 -60 -6 -63 -10 -2 -5 -13 -8
-25 -8 -11 0 -51 -15 -88 -32 -81 -38 -109 -75 -144 -188 -26 -83 -45 -237
-28 -226 14 9 19 -11 18 -76 -1 -32 2 -58 7 -58 4 0 7 -8 6 -17 0 -11 -3 -13
-6 -5 -2 6 -12 12 -20 12 -14 0 -15 -11 -9 -76 10 -108 46 -218 73 -222 17 -3
22 -14 31 -71 7 -37 15 -106 18 -153 7 -84 6 -87 -20 -113 -14 -14 -33 -41
-40 -60 -8 -18 -27 -42 -43 -52 -15 -10 -39 -28 -53 -41 -30 -29 -119 -71
-226 -108 -43 -15 -113 -41 -154 -58 l-75 -32 -3 -82 -3 -82 901 0 900 0 0 94
0 94 -51 21 c-28 13 -94 36 -148 53 -248 77 -291 100 -291 153 0 37 -24 79
-57 100 -61 39 -60 35 -41 179 20 153 27 184 39 164 5 -8 11 -9 17 -3 19 20
51 142 58 218 6 73 5 77 -14 77 -19 0 -20 5 -15 63 3 34 9 66 14 71 12 13 11
132 -1 170 -5 17 -16 56 -25 87 -15 56 -69 137 -92 138 -7 1 -16 7 -20 14 -7
12 -28 24 -58 33 -42 13 -97 25 -135 30 -25 3 -50 7 -57 9 -6 2 -13 2 -15 0z"/>
</g>
</svg>
